<svg width="60" height="60" viewBox="0 0 60 60" fill="none" xmlns="http://www.w3.org/2000/svg">
<g filter="url(#filter0_d_6_26)">
<path d="M17.5 45C13.3333 45 9.79167 43.5417 6.875 40.625C3.95833 37.7083 2.5 34.1667 2.5 30C2.5 25.8333 3.95833 22.2917 6.875 19.375C9.79167 16.4583 13.3333 15 17.5 15C20.25 15 22.7708 15.6875 25.0625 17.0625C25.8326 17.5246 26.5486 18.0361 27.2105 18.597C29.6358 20.6521 32.4493 22.5 35.6282 22.5H50C54.1421 22.5 57.5 25.8579 57.5 30V35C57.5 36.3807 56.3807 37.5 55 37.5C53.6193 37.5 52.5 38.6193 52.5 40V41.25C52.5 43.3211 50.8211 45 48.75 45H41.25C39.1789 45 37.5 43.3211 37.5 41.25C37.5 39.1789 35.8211 37.5 33.75 37.5H33.0408C31.4658 37.5 30.0466 38.3655 29.0341 39.5719C27.9267 40.8914 26.6028 42.0133 25.0625 42.9375C22.7708 44.3125 20.25 45 17.5 45ZM17.5 40C20.25 40 22.4583 39.1562 24.125 37.4688C26.532 35.0317 29.5839 32.5 33.0093 32.5H38.75C40.8211 32.5 42.5 34.1789 42.5 36.25V37.5C42.5 38.8807 43.6193 40 45 40C46.3807 40 47.5 38.8807 47.5 37.5V35C47.5 33.6193 48.6193 32.5 50 32.5C51.3807 32.5 52.5 31.3807 52.5 30C52.5 28.6193 51.3807 27.5 50 27.5H33.0093C29.5839 27.5 26.532 24.9683 24.125 22.5312C22.4583 20.8438 20.25 20 17.5 20C14.75 20 12.3958 20.9792 10.4375 22.9375C8.47917 24.8958 7.5 27.25 7.5 30C7.5 32.75 8.47917 35.1042 10.4375 37.0625C12.3958 39.0208 14.75 40 17.5 40ZM17.5 35C18.875 35 20.0521 34.5104 21.0312 33.5312C22.0104 32.5521 22.5 31.375 22.5 30C22.5 28.625 22.0104 27.4479 21.0312 26.4688C20.0521 25.4896 18.875 25 17.5 25C16.125 25 14.9479 25.4896 13.9688 26.4688C12.9896 27.4479 12.5 28.625 12.5 30C12.5 31.375 12.9896 32.5521 13.9688 33.5312C14.9479 34.5104 16.125 35 17.5 35Z" fill="#AE363B"/>
</g>
<defs>
<filter id="filter0_d_6_26" x="0" y="14.5" width="60" height="35" filterUnits="userSpaceOnUse" color-interpolation-filters="sRGB">
<feFlood flood-opacity="0" result="BackgroundImageFix"/>
<feColorMatrix in="SourceAlpha" type="matrix" values="0 0 0 0 0 0 0 0 0 0 0 0 0 0 0 0 0 0 127 0" result="hardAlpha"/>
<feOffset dy="2"/>
<feGaussianBlur stdDeviation="1.25"/>
<feComposite in2="hardAlpha" operator="out"/>
<feColorMatrix type="matrix" values="0 0 0 0 0 0 0 0 0 0 0 0 0 0 0 0 0 0 0.25 0"/>
<feBlend mode="normal" in2="BackgroundImageFix" result="effect1_dropShadow_6_26"/>
<feBlend mode="normal" in="SourceGraphic" in2="effect1_dropShadow_6_26" result="shape"/>
</filter>
</defs>
</svg>
