<svg width="60" height="60" viewBox="0 0 60 60" fill="none" xmlns="http://www.w3.org/2000/svg">
<g clip-path="url(#clip0_6_28)">
<g filter="url(#filter0_d_6_28)">
<path d="M11.2188 36.9375C12.5521 40.493 16.9736 40.842 20.4836 39.3932C20.899 39.2217 21.3212 39.0594 21.75 38.9062C24.375 37.9688 27.125 37.5 30 37.5C32.875 37.5 35.625 37.9688 38.25 38.9062C38.6788 39.0594 39.101 39.2217 39.5164 39.3932C43.0264 40.842 47.4479 40.493 48.7812 36.9375C49.5938 34.7708 50 32.4583 50 30C50 24.4583 48.0521 19.7396 44.1562 15.8438C40.2604 11.9479 35.5417 10 30 10C24.4583 10 19.7396 11.9479 15.8438 15.8438C11.9479 19.7396 10 24.4583 10 30C10 32.4583 10.4062 34.7708 11.2188 36.9375ZM30 32.5C27.5417 32.5 25.4688 31.6562 23.7812 29.9688C22.0938 28.2812 21.25 26.2083 21.25 23.75C21.25 21.2917 22.0938 19.2188 23.7812 17.5312C25.4688 15.8438 27.5417 15 30 15C32.4583 15 34.5312 15.8438 36.2188 17.5312C37.9062 19.2188 38.75 21.2917 38.75 23.75C38.75 26.2083 37.9062 28.2812 36.2188 29.9688C34.5312 31.6562 32.4583 32.5 30 32.5ZM30 55C26.5417 55 23.2917 54.3438 20.25 53.0312C17.2083 51.7188 14.5625 49.9375 12.3125 47.6875C10.0625 45.4375 8.28125 42.7917 6.96875 39.75C5.65625 36.7083 5 33.4583 5 30C5 26.5417 5.65625 23.2917 6.96875 20.25C8.28125 17.2083 10.0625 14.5625 12.3125 12.3125C14.5625 10.0625 17.2083 8.28125 20.25 6.96875C23.2917 5.65625 26.5417 5 30 5C33.4583 5 36.7083 5.65625 39.75 6.96875C42.7917 8.28125 45.4375 10.0625 47.6875 12.3125C49.9375 14.5625 51.7188 17.2083 53.0312 20.25C54.3438 23.2917 55 26.5417 55 30C55 33.4583 54.3438 36.7083 53.0312 39.75C51.7188 42.7917 49.9375 45.4375 47.6875 47.6875C45.4375 49.9375 42.7917 51.7188 39.75 53.0312C36.7083 54.3438 33.4583 55 30 55ZM30 50C32.2083 50 34.2917 49.6771 36.25 49.0312C39.1263 48.0827 39.1263 44.4173 36.25 43.4688C34.2917 42.8229 32.2083 42.5 30 42.5C27.7917 42.5 25.7083 42.8229 23.75 43.4688C20.8737 44.4173 20.8737 48.0827 23.75 49.0312C25.7083 49.6771 27.7917 50 30 50ZM30 27.5C31.0833 27.5 31.9792 27.1458 32.6875 26.4375C33.3958 25.7292 33.75 24.8333 33.75 23.75C33.75 22.6667 33.3958 21.7708 32.6875 21.0625C31.9792 20.3542 31.0833 20 30 20C28.9167 20 28.0208 20.3542 27.3125 21.0625C26.6042 21.7708 26.25 22.6667 26.25 23.75C26.25 24.8333 26.6042 25.7292 27.3125 26.4375C28.0208 27.1458 28.9167 27.5 30 27.5Z" fill="#AE363B"/>
</g>
</g>
<defs>
<filter id="filter0_d_6_28" x="2.4" y="5" width="55.2" height="55.6" filterUnits="userSpaceOnUse" color-interpolation-filters="sRGB">
<feFlood flood-opacity="0" result="BackgroundImageFix"/>
<feColorMatrix in="SourceAlpha" type="matrix" values="0 0 0 0 0 0 0 0 0 0 0 0 0 0 0 0 0 0 127 0" result="hardAlpha"/>
<feOffset dy="3"/>
<feGaussianBlur stdDeviation="1.3"/>
<feComposite in2="hardAlpha" operator="out"/>
<feColorMatrix type="matrix" values="0 0 0 0 0 0 0 0 0 0 0 0 0 0 0 0 0 0 0.25 0"/>
<feBlend mode="normal" in2="BackgroundImageFix" result="effect1_dropShadow_6_28"/>
<feBlend mode="normal" in="SourceGraphic" in2="effect1_dropShadow_6_28" result="shape"/>
</filter>
<clipPath id="clip0_6_28">
<rect width="60" height="60" fill="white"/>
</clipPath>
</defs>
</svg>
